<svg width="97" height="91" viewBox="0 0 97 91" fill="none" xmlns="http://www.w3.org/2000/svg">
<path class="hw_svg__fill" d="M94.1635 33.2085L63.0909 51.8681L69.57 32.5772L64.4252 9.8541L94.1635 33.2085Z" fill="#090909"/>
<path class="hw_svg__fill" d="M32.7734 75.7837L23.5583 54.901C18.3544 43.1083 23.8539 29.3418 35.7507 24.3806V24.3806V24.3806C44.3458 20.6393 53.7345 19.0877 63.0762 19.8647L63.5444 19.9037L63.3196 28.2038L62.7813 39.3763L55.0834 39.5899C53.5922 39.6313 52.1228 39.9585 50.755 40.5539V40.5539C46.7492 42.2976 45.388 47.302 47.9586 50.8345L56.5267 62.6088L41.4494 62.2732L32.7734 75.7837Z" fill="#090909"/>
<path class="hw_svg__fill" d="M11.2091 9.42725L20.4165 9.42725C22.3496 9.42725 23.9166 10.9943 23.9166 12.9274L23.9166 16.2928C23.9166 18.1801 22.4203 19.7276 20.534 19.791L14.5917 19.9907C12.7055 20.0541 11.2091 21.6016 11.2091 23.4889L11.2091 76.4605C11.2091 78.3936 12.7762 79.9607 14.7093 79.9607L70.3852 79.9607C72.3183 79.9607 73.8854 78.3936 73.8854 76.4605L73.8854 70.5836C73.8854 68.6505 75.4525 67.0834 77.3856 67.0834L81.4894 67.0834C83.4225 67.0834 84.9896 68.6505 84.9896 70.5836L84.9896 79.9607L84.9896 87.0729C84.9896 89.006 83.4225 90.5731 81.4894 90.5731L73.8854 90.5731L11.2091 90.5731L3.9272 90.573C1.99412 90.573 0.427065 89.0059 0.427065 87.0728L0.427065 79.9606L0.427068 19.6772L0.427068 12.9274C0.427068 10.9942 1.99418 9.42714 3.9273 9.42716L11.2091 9.42725Z" fill="#090909"/>
</svg>
