<svg width="60" height="46" viewBox="0 0 60 46" fill="none" xmlns="http://www.w3.org/2000/svg">
<g filter="url(#filter0_d_1529_317)">
<path d="M33.6963 16.9175L26.4851 16.7396C26.0705 16.7294 25.7184 17.3596 25.6986 18.1472L25.5772 22.9961C25.5575 23.7838 25.8776 24.4306 26.2922 24.4408L33.5034 24.6188C33.918 24.629 34.2701 23.9988 34.2898 23.2111L34.4113 18.3622C34.431 17.5746 34.1109 16.9278 33.6963 16.9175Z" fill="#FFFDFB"/>
<path d="M26.3342 16.0533L30.1868 9.44327C30.4083 9.06322 30.0578 8.43334 29.4039 8.0364L25.4927 5.66217C24.8388 5.26523 24.1292 5.25153 23.9076 5.63158L20.0551 12.2416C19.8336 12.6217 20.1841 13.2515 20.838 13.6485L24.7492 16.0227C25.4031 16.4197 26.1127 16.4334 26.3342 16.0533Z" fill="#FFFDFB"/>
<path d="M11.5295 16.0036L4.01787 15.8182C3.58596 15.8076 3.21985 16.4375 3.20011 17.2251L3.07865 22.074C3.05892 22.8617 3.39305 23.5088 3.82495 23.5195L11.3366 23.7048C11.7685 23.7155 12.1346 23.0856 12.1543 22.298L12.2758 17.4491C12.2955 16.6614 11.9614 16.0143 11.5295 16.0036Z" fill="#FFFDFB"/>
<path d="M14.5292 34.6727L18.1397 28.4779C18.3473 28.1217 17.9855 27.5112 17.3316 27.1143L13.4205 24.7401C12.7665 24.3431 12.0682 24.3101 11.8606 24.6662L8.25002 30.861C8.04243 31.2172 8.40424 31.8277 9.05814 32.2246L12.9693 34.5989C13.6232 34.9958 14.3216 35.0289 14.5292 34.6727Z" fill="#FFFDFB"/>
<path d="M29.3162 31.5479L26.1504 25.1004C25.9684 24.7297 25.2688 24.7134 24.5878 25.0641L20.5149 27.1613C19.834 27.512 19.4295 28.0967 19.6116 28.4674L22.7774 34.9149C22.9594 35.2856 23.659 35.3018 24.3399 34.9512L28.4128 32.8539C29.0938 32.5033 29.4982 31.9186 29.3162 31.5479Z" fill="#FFFDFB"/>
<path d="M18.4866 12.0736L15.0621 5.06872C14.8652 4.66597 14.1531 4.62275 13.4715 4.97219L9.39502 7.06228C8.71348 7.41171 8.32059 8.02149 8.51749 8.42424L11.942 15.4291C12.1389 15.8319 12.851 15.8751 13.5326 15.5257L17.609 13.4356C18.2906 13.0861 18.6835 12.4764 18.4866 12.0736Z" fill="#FFFDFB"/>
<path d="M19.1028 13.1913C22.7242 13.2808 25.7646 16.4039 25.6649 20.3885C25.5651 24.3733 22.372 27.3434 18.7506 27.2542C15.129 27.1649 12.0877 24.0408 12.1876 20.056C12.2875 16.0712 15.4813 13.1019 19.1028 13.1913Z" stroke="#FFFDFB" stroke-width="7.9432"/>
<path d="M56.81 9.35437H51.3378C51.0231 9.35437 50.7681 9.8334 50.7681 10.4243V14.0621C50.7681 14.653 51.0231 15.1321 51.3378 15.1321H56.81C57.1246 15.1321 57.3797 14.653 57.3797 14.0621V10.4243C57.3797 9.8334 57.1246 9.35437 56.81 9.35437Z" fill="#FFFDFB"/>
<path d="M51.2106 8.84257L54.0068 3.8153C54.1675 3.52625 53.8897 3.06047 53.3863 2.77496L50.375 1.0672C49.8715 0.781683 49.3331 0.784543 49.1723 1.07359L46.3761 6.10087C46.2154 6.38991 46.4932 6.85569 46.9966 7.14121L50.0079 8.84896C50.5114 9.13448 51.0498 9.13162 51.2106 8.84257Z" fill="#FFFDFB"/>
<path d="M39.9817 9.07922H34.2814C33.9537 9.07922 33.688 9.55825 33.688 10.1492V13.787C33.688 14.3779 33.9537 14.8569 34.2814 14.8569H39.9817C40.3094 14.8569 40.5751 14.3779 40.5751 13.787V10.1492C40.5751 9.55825 40.3094 9.07922 39.9817 9.07922Z" fill="#FFFDFB"/>
<path d="M42.6116 23.0213L45.2321 18.3098C45.3827 18.0389 45.0968 17.5879 44.5933 17.3024L41.582 15.5946C41.0786 15.3091 40.5483 15.2972 40.3976 15.5681L37.7771 20.2796C37.6264 20.5504 37.9124 21.0015 38.4159 21.287L41.4272 22.9948C41.9306 23.2803 42.4609 23.2922 42.6116 23.0213Z" fill="#FFFDFB"/>
<path d="M53.7661 20.4048L51.2427 15.6292C51.0976 15.3547 50.5667 15.3554 50.057 15.6309L47.008 17.2787C46.4982 17.5542 46.2026 18.0001 46.3477 18.2747L48.8711 23.0502C49.0162 23.3248 49.547 23.324 50.0568 23.0485L53.1058 21.4007C53.6155 21.1252 53.9112 20.6793 53.7661 20.4048Z" fill="#FFFDFB"/>
<path d="M45.1834 6.00401L42.4532 0.815316C42.2962 0.516989 41.7553 0.49776 41.2451 0.772367L38.1932 2.41487C37.683 2.68948 37.3966 3.15393 37.5536 3.45226L40.2838 8.64095C40.4407 8.93928 40.9816 8.95851 41.4919 8.6839L44.5437 7.0414C45.0539 6.76679 45.3403 6.30234 45.1834 6.00401Z" fill="#FFFDFB"/>
<path d="M45.6719 6.83032C48.4716 6.83041 50.8203 9.14864 50.8203 12.1057C50.8203 15.0628 48.4716 17.381 45.6719 17.3811C42.8721 17.3811 40.5235 15.0628 40.5234 12.1057C40.5234 9.14859 42.8721 6.83032 45.6719 6.83032Z" stroke="#FFFDFB" stroke-width="5.9574"/>
<path d="M49.0399 30.1229H44.9772C44.7436 30.1229 44.5542 30.4786 44.5542 30.9173V33.6181C44.5542 34.0568 44.7436 34.4124 44.9772 34.4124H49.0399C49.2735 34.4124 49.4628 34.0568 49.4628 33.6181V30.9173C49.4628 30.4786 49.2735 30.1229 49.0399 30.1229Z" fill="#FFFDFB"/>
<path d="M44.8823 29.743L46.9582 26.0106C47.0776 25.796 46.8713 25.4502 46.4975 25.2383L44.2619 23.9704C43.8881 23.7584 43.4883 23.7605 43.369 23.9751L41.293 27.7075C41.1737 27.9221 41.3799 28.2679 41.7537 28.4799L43.9894 29.7477C44.3631 29.9597 44.7629 29.9576 44.8823 29.743Z" fill="#FFFDFB"/>
<path d="M36.5461 29.9187H32.3141C32.0708 29.9187 31.8735 30.2743 31.8735 30.7131V33.4139C31.8735 33.8526 32.0708 34.2082 32.3141 34.2082H36.5461C36.7894 34.2082 36.9867 33.8526 36.9867 33.4139V30.7131C36.9867 30.2743 36.7894 29.9187 36.5461 29.9187Z" fill="#FFFDFB"/>
<path d="M38.4984 40.2696L40.4439 36.7717C40.5558 36.5706 40.3435 36.2357 39.9697 36.0237L37.7341 34.7558C37.3603 34.5439 36.9666 34.5351 36.8547 34.7362L34.9092 38.2341C34.7973 38.4352 35.0097 38.77 35.3834 38.982L37.6191 40.2499C37.9929 40.4619 38.3866 40.4707 38.4984 40.2696Z" fill="#FFFDFB"/>
<path d="M46.7799 38.327L44.9065 34.7816C44.7987 34.5777 44.4046 34.5783 44.0262 34.7828L41.7625 36.0062C41.3841 36.2107 41.1646 36.5418 41.2723 36.7456L43.1457 40.2911C43.2535 40.4949 43.6476 40.4944 44.026 40.2898L46.2897 39.0665C46.6681 38.8619 46.8876 38.5309 46.7799 38.327Z" fill="#FFFDFB"/>
<path d="M40.4079 27.6356L38.3809 23.7834C38.2644 23.5619 37.8628 23.5476 37.484 23.7515L35.2183 24.9709C34.8394 25.1748 34.6268 25.5196 34.7434 25.7411L36.7703 29.5933C36.8869 29.8148 37.2884 29.8291 37.6672 29.6252L39.933 28.4058C40.3118 28.2019 40.5244 27.8571 40.4079 27.6356Z" fill="#FFFDFB"/>
<path d="M40.77 28.5201C42.6952 28.5201 44.3218 30.1158 44.3218 32.1656C44.3217 34.2155 42.6952 35.8112 40.77 35.8112C38.845 35.811 37.2193 34.2154 37.2192 32.1656C37.2192 30.1159 38.845 28.5203 40.77 28.5201Z" stroke="#FFFDFB" stroke-width="4.9645"/>
</g>
<defs>
<filter id="filter0_d_1529_317" x="0.0141997" y="0" width="59.5741" height="45.177" filterUnits="userSpaceOnUse" color-interpolation-filters="sRGB">
<feFlood flood-opacity="0" result="BackgroundImageFix"/>
<feColorMatrix in="SourceAlpha" type="matrix" values="0 0 0 0 0 0 0 0 0 0 0 0 0 0 0 0 0 0 127 0" result="hardAlpha"/>
<feOffset dy="1.9858"/>
<feGaussianBlur stdDeviation="0.9929"/>
<feComposite in2="hardAlpha" operator="out"/>
<feColorMatrix type="matrix" values="0 0 0 0 0 0 0 0 0 0 0 0 0 0 0 0 0 0 0.25 0"/>
<feBlend mode="normal" in2="BackgroundImageFix" result="effect1_dropShadow_1529_317"/>
<feBlend mode="normal" in="SourceGraphic" in2="effect1_dropShadow_1529_317" result="shape"/>
</filter>
</defs>
</svg>
